<?xml version="1.0" ?><svg id="Layer_1_1_" style="enable-background:new 0 0 64 64;" version="1.1" viewBox="0 0 64 64" xml:space="preserve" xmlns="http://www.w3.org/2000/svg" xmlns:xlink="http://www.w3.org/1999/xlink"><g><path d="M61,43h-1v-7.117c0-2.155-1.374-4.062-3.418-4.743L51,29.279v-0.82c0.757-0.679,1.34-1.545,1.675-2.528   C54.559,25.609,56,23.974,56,22v-4c0-4.962-4.038-9-9-9s-9,4.038-9,9v4c0,1.974,1.441,3.609,3.325,3.932   C41.66,26.914,42.243,27.78,43,28.46v0.82l-5.582,1.861C35.374,31.821,34,33.728,34,35.883V43H3c-1.103,0-2,0.897-2,2v2   c0,1.103,0.897,2,2,2v14h58V49c1.103,0,2-0.897,2-2v-2C63,43.897,62.103,43,61,43z M58,35.883V43h-7.816   c0.414-1.161,1.514-2,2.816-2h3v-5h-2v3h-1c-0.342,0-0.677,0.035-1,0.101V35h-3.834l2.279-3.798l5.504,1.835   C57.176,33.446,58,34.59,58,35.883z M45.899,43c-0.247-1.213-0.946-2.253-1.899-2.974V37h6v3.026   c-0.953,0.721-1.652,1.762-1.899,2.974H45.899z M47,28c-2.206,0-4-1.794-4-4v-4.069c1.464-0.154,2.845-0.688,4-1.596   c1.155,0.909,2.536,1.443,4,1.596V24C51,26.206,49.206,28,47,28z M53,23.722v-3.444c0.595,0.347,1,0.985,1,1.722   S53.595,23.375,53,23.722z M47,11c3.86,0,7,3.14,7,7v0.556C53.409,18.212,52.732,18,52,18h-0.171c-1.557,0-3.021-0.606-4.122-1.707   L47,15.586l-0.707,0.707C45.192,17.394,43.729,18,42.171,18H42c-0.732,0-1.409,0.212-2,0.556V18C40,14.14,43.14,11,47,11z M40,22   c0-0.737,0.405-1.375,1-1.722v3.444C40.405,23.375,40,22.737,40,22z M47,30c0.702,0,1.373-0.128,2-0.35v0.073l-2,3.333l-2-3.333   V29.65C45.627,29.872,46.298,30,47,30z M36,35.883c0-1.293,0.824-2.437,2.051-2.846l5.504-1.835L45.834,35H42v4.101   C41.677,39.035,41.342,39,41,39h-1v-3h-2v5h3c1.302,0,2.402,0.839,2.816,2H36V35.883z M59,61H5V49h54V61z M3,47v-2h58l0.001,2H3z"/><rect height="2" width="2" x="55" y="57"/><rect height="2" width="2" x="51" y="57"/><rect height="2" width="2" x="47" y="57"/><rect height="2" width="2" x="43" y="57"/><rect height="2" width="14" x="43" y="53"/><path d="M19,37c9.925,0,18-8.075,18-18S28.925,1,19,1S1,9.075,1,19S9.075,37,19,37z M3.051,20.008C4.081,19.359,5.247,19,6.467,19   c1.153,0,2.275-0.23,3.335-0.685l4.369-1.873C14.857,16.149,15.583,16,16.33,16c1.915,0,3.716,1.02,4.7,2.661l0.494,0.823   C21.835,20.003,22,20.597,22,21.202v0.103c0,0.826-0.321,1.602-0.905,2.186C20.122,24.464,18.828,25,17.452,25   c-0.796,0-1.593-0.188-2.304-0.544l-1.236-0.618C12.816,23.29,11.589,23,10.363,23C8.508,23,7,24.508,7,26.363   c0,1.394,0.877,2.659,2.182,3.148l3.018,1.132c1.607,0.602,2.697,2.124,2.784,3.826C8.417,32.762,3.49,26.992,3.051,20.008z    M25.166,33.761C24.416,32.613,24,31.304,24,29.916c0-1.449,0.772-2.812,2.015-3.558C27.856,25.252,29,23.232,29,21.084v-1.416   c0-2.043,0.882-3.986,2.419-5.332l2.161-1.891C34.485,14.449,35,16.664,35,19C35,25.638,30.936,31.342,25.166,33.761z    M32.613,10.635l-2.511,2.197C28.131,14.557,27,17.049,27,19.668v1.416c0,1.449-0.772,2.812-2.015,3.558   C23.144,25.748,22,27.768,22,29.916c0,1.582,0.424,3.138,1.205,4.505C21.863,34.787,20.457,35,19,35   c-0.682,0-1.349-0.057-2.009-0.14C16.993,34.801,17,34.742,17,34.684c0-2.618-1.647-4.995-4.098-5.914l-3.018-1.132   C9.355,27.44,9,26.928,9,26.363C9,25.611,9.611,25,10.363,25c0.917,0,1.835,0.217,2.654,0.627l1.237,0.618   C15.241,26.739,16.347,27,17.452,27c1.91,0,3.706-0.744,5.057-2.095c0.961-0.961,1.491-2.24,1.491-3.6v-0.103   c0-0.968-0.263-1.918-0.761-2.747l-0.494-0.823C21.401,15.392,18.943,14,16.33,14c-1.019,0-2.01,0.204-2.947,0.605l-4.368,1.872   C8.205,16.824,7.348,17,6.467,17c-1.189,0-2.335,0.27-3.404,0.745c0.095-1.214,0.312-2.394,0.664-3.518   C4.692,14.727,5.752,15,6.862,15c2.3,0,4.435-1.143,5.71-3.056l1.23-1.845C14.261,9.411,15.029,9,15.856,9   c0.941,0,1.787,0.523,2.208,1.365C18.877,11.99,20.511,13,22.329,13h0.962c1.375,0,2.683-0.593,3.588-1.628l3.313-3.787   C31.12,8.496,31.927,9.523,32.613,10.635z M19,3c3.636,0,6.982,1.233,9.672,3.285l-3.299,3.77C24.848,10.655,24.088,11,23.291,11   h-0.962c-1.055,0-2.004-0.586-2.476-1.53C19.091,7.947,17.56,7,15.856,7c-1.497,0-2.887,0.744-3.718,1.99l-1.23,1.845   C10.004,12.191,8.492,13,6.862,13c-0.856,0-1.671-0.223-2.4-0.642C6.991,6.846,12.549,3,19,3z"/></g></svg>