<?xml version="1.0" ?><svg style="enable-background:new 0 0 64 64;" version="1.1" viewBox="0 0 64 64" xml:space="preserve" xmlns="http://www.w3.org/2000/svg" xmlns:xlink="http://www.w3.org/1999/xlink"><style type="text/css">
	.st0{fill:none;stroke:#000000;stroke-width:2;stroke-linecap:round;stroke-linejoin:round;stroke-miterlimit:10;}
	.st1{fill:none;stroke:#000000;stroke-width:2;stroke-miterlimit:10;}
</style><g id="Layer_1"/><g id="Layer_2"><g><line class="st0" x1="4.1" x2="6.3" y1="29.6" y2="29.3"/><polyline class="st0" points="8.4,27.4 10.3,23.7 12.9,29.2 18.9,30.1 14.5,34.3 15.5,40.3 10.2,37.4 4.7,40.2 5.8,34.2 2.5,30.9       "/><polyline class="st0" points="24.4,31 23.3,29.9 29.3,29.1 32.1,23.7 34.7,29.2 40.7,30.1 36.3,34.3 37.3,40.3 31.9,37.4     26.5,40.2 27.6,34.2 26.6,33.2   "/><polyline class="st0" points="48.3,40.2 49.4,34.2 45.1,29.9 51.1,29.1 53.8,23.7 56.5,29.2 62.5,30.1 61.6,30.9   "/><polyline class="st0" points="59.2,33.2 58.1,34.3 59.1,40.3 53.7,37.4 52.7,38   "/></g></g></svg>